<?xml version="1.0" encoding="UTF-8"?>
<svg width="321px" height="179px" viewBox="0 0 321 179" version="1.1" xmlns="http://www.w3.org/2000/svg" xmlns:xlink="http://www.w3.org/1999/xlink">
    <!-- Generator: Sketch 52.6 (67491) - http://www.bohemiancoding.com/sketch -->
    <title>Artboard</title>
    <desc>Created with Sketch.</desc>
    <g id="Artboard" stroke="none" stroke-width="1" fill="none" fill-rule="evenodd">
        <path d="M5.16405252,6.8360273 C5.16405252,3.64853034 7.82029999,0.859470502 11.1406093,0.859470502 C14.4609187,0.859470502 17.2499785,3.64853034 17.2499785,6.8360273 C17.2499785,10.289149 14.4609187,12.9453965 11.1406093,12.9453965 C7.82029999,12.9453965 5.16405252,10.289149 5.16405252,6.8360273 Z M7.15623812,101 L7.15623812,34.3281886 L14.9921682,32.7344401 L14.9921682,101 L7.15623812,101 Z M33.2317591,34.3281886 L41.0676891,32.7344401 L41.0676891,40.4375578 C45.7161222,36.7188113 55.0129883,31.8047535 65.2395411,31.8047535 C80.7785888,31.8047535 87.8176446,40.5703701 87.8176446,54.1172322 L87.8176446,101 L79.9817145,101 L79.9817145,56.2422302 C79.9817145,45.4844279 76.2629681,38.8438093 63.9114174,38.8438093 C54.4817389,38.8438093 47.5754954,41.8984939 41.0676891,46.4141146 L41.0676891,101 L33.2317591,101 L33.2317591,34.3281886 Z M96.4947885,33.2656896 L107.119778,33.2656896 L107.119778,18.125079 L114.955708,16.5313306 L114.955708,33.2656896 L139.12756,33.2656896 L137.666624,39.7734959 L114.955708,39.7734959 L114.955708,82.8047049 C114.955708,91.1718844 120.268203,95.0234432 127.174447,95.0234432 C132.486942,95.0234432 137.135375,94.4921937 143.111932,92.101571 L143.111932,99.0078144 C138.330686,101.398437 132.221317,102.195311 127.174447,102.195311 C117.213519,102.195311 107.119778,97.5468783 107.119778,83.4687667 L107.119778,39.7734959 L96.4947885,39.7734959 L96.4947885,33.2656896 Z M201.593692,98.0781278 C195.351511,101.132812 188.445267,102.460936 181.273399,102.460936 C160.687481,102.460936 146.60937,86.7890761 146.60937,66.8672201 C146.60937,47.3438012 158.96092,31.8047535 177.023403,31.8047535 C195.88276,31.8047535 203.71869,45.3516156 203.71869,62.218787 C203.71869,63.6797231 203.71869,65.0078468 203.585878,66.6015953 L154.179675,66.6015953 L154.179675,66.8672201 C154.179675,83.8672038 165.867164,95.2890679 181.273399,95.2890679 C188.312455,95.2890679 193.492137,94.8906308 201.593692,90.3750101 L201.593692,98.0781278 Z M177.023403,38.7109969 C165.468727,38.7109969 156.70311,46.8125517 154.578112,60.4922261 L195.749948,60.4922261 L195.749948,59.6953519 C195.749948,48.4063002 190.30464,38.7109969 177.023403,38.7109969 Z M223.552065,101 L215.716135,101 L215.716135,34.3281886 L223.552065,32.7344401 L223.552065,44.5547413 C229.395809,37.1172484 239.091112,30.7422545 251.177038,32.6016277 L251.177038,40.4375578 C239.622362,38.1797474 230.59112,43.2266176 223.552065,50.7969229 L223.552065,101 Z M259.721343,34.3281886 L267.557273,32.7344401 L267.557273,40.4375578 C272.205706,36.7188113 281.502572,31.8047535 291.729125,31.8047535 C307.268173,31.8047535 314.307229,40.5703701 314.307229,54.1172322 L314.307229,101 L306.471299,101 L306.471299,56.2422302 C306.471299,45.4844279 302.752552,38.8438093 290.401001,38.8438093 C280.971323,38.8438093 274.065079,41.8984939 267.557273,46.4141146 L267.557273,101 L259.721343,101 L259.721343,34.3281886 Z" id="intern" fill="#003087"></path>
        <path d="M16.0243989,162 L5.11132338,162 L5.11132338,125.085973 L16.0243989,123.547888 L16.0243989,127.576205 C18.3681467,125.67191 22.6161895,123.401404 27.6698956,123.401404 C32.2109069,123.401404 35.6532864,125.232457 37.7773078,128.381868 C40.6337504,126.111362 45.321246,123.401404 51.546826,123.401404 C59.2372483,123.401404 63.9247438,128.748079 63.9247438,136.511743 L63.9247438,162 L52.9384262,162 L52.9384262,139.221701 C52.9384262,135.193385 51.2538575,132.776395 47.0790568,132.776395 C44.2226142,132.776395 42.0253507,133.582058 39.9013293,134.900416 C39.9745714,135.413111 39.9745714,135.925806 39.9745714,136.511743 L39.9745714,162 L28.9882537,162 L28.9882537,139.221701 C28.9882537,135.193385 27.303685,132.776395 23.1288843,132.776395 C20.3456838,132.776395 18.0751782,133.582058 16.0243989,134.900416 L16.0243989,162 Z M106.354458,160.168947 C102.692352,162 98.8837619,162.805663 94.1230242,162.805663 C81.3788958,162.805663 72.5898417,154.74903 72.5898417,143.103534 C72.5898417,131.824248 80.5732325,123.401404 91.5595501,123.401404 C103.131805,123.401404 108.405237,132.043974 108.405237,142.371112 C108.405237,143.32326 108.405237,144.421892 108.258753,145.447281 L83.0634645,145.447281 C84.3818226,151.160167 89.5820129,153.943367 95.8075929,153.943367 C99.0302461,153.943367 102.326141,153.503914 106.354458,151.672861 L106.354458,160.168947 Z M91.1933395,131.677763 C87.1650231,131.677763 83.9423699,134.31448 82.9902224,139.221701 L97.9316144,139.221701 L97.9316144,138.928733 C97.9316144,135.120143 95.8075929,131.677763 91.1933395,131.677763 Z M148.784145,160.168947 C145.12204,162 141.313449,162.805663 136.552712,162.805663 C123.808583,162.805663 115.019529,154.74903 115.019529,143.103534 C115.019529,131.824248 123.00292,123.401404 133.989238,123.401404 C145.561492,123.401404 150.834925,132.043974 150.834925,142.371112 C150.834925,143.32326 150.834925,144.421892 150.68844,145.447281 L125.493152,145.447281 C126.81151,151.160167 132.0117,153.943367 138.23728,153.943367 C141.459934,153.943367 144.755829,153.503914 148.784145,151.672861 L148.784145,160.168947 Z M133.623027,131.677763 C129.594711,131.677763 126.372057,134.31448 125.41991,139.221701 L140.361302,139.221701 L140.361302,138.928733 C140.361302,135.120143 138.23728,131.677763 133.623027,131.677763 Z M155.984374,124.207067 L161.111322,124.207067 L161.111322,116.370161 L172.09764,114.905318 L172.09764,124.207067 L184.841768,124.207067 L183.52341,132.410184 L172.09764,132.410184 L172.09764,148.743177 C172.09764,152.185556 174.221661,153.650399 177.224588,153.650399 C180.373999,153.650399 182.498021,153.284188 185.867158,151.819346 L185.867158,160.6084 C182.644505,162.073242 179.34861,162.732421 175.100567,162.732421 C167.410144,162.732421 161.111322,158.923831 161.111322,150.061535 L161.111322,132.410184 L155.984374,132.410184 L155.984374,124.207067 Z M229.688439,124.207067 L229.688439,161.121095 L218.702121,162.659179 L218.702121,158.630863 C216.358373,160.535158 212.403299,162.805663 207.203109,162.805663 C199.29296,162.805663 194.385738,157.385747 194.385738,149.695324 L194.385738,124.207067 L205.372056,124.207067 L205.372056,147.058608 C205.372056,151.086924 207.056624,153.577156 211.377909,153.577156 C214.307594,153.577156 216.504857,152.698251 218.702121,151.453135 L218.702121,124.207067 L229.688439,124.207067 Z M252.562485,134.900416 L252.562485,152.844735 C254.100569,153.796883 256.444317,154.163093 258.348612,154.163093 C264.354466,154.163093 268.382782,149.54884 268.382782,142.444355 C268.382782,136.584985 265.306613,132.629911 259.813454,132.629911 C257.030254,132.629911 254.173811,133.6553 252.562485,134.900416 Z M252.562485,178.699203 L241.649409,178.699203 L241.649409,125.085973 L252.562485,123.547888 L252.562485,127.502963 C254.759748,125.452183 258.568338,123.401404 263.329076,123.401404 C273.14352,123.401404 279.588826,130.725616 279.588826,141.858418 C279.588826,154.309578 270.580046,162.805663 259.813454,162.805663 C257.396465,162.805663 254.613264,162.292968 252.562485,161.414063 L252.562485,178.699203 Z M286.569333,160.022463 L286.569333,150.94044 C290.744134,153.503914 295.871082,154.602546 299.752914,154.602546 C302.902326,154.602546 304.879863,153.284188 304.879863,151.233409 C304.879863,145.959976 287.521481,147.717787 287.521481,135.339869 C287.521481,128.674836 293.600577,123.401404 302.243146,123.401404 C306.637674,123.401404 310.006811,124.280309 313.44919,125.891636 L313.44919,134.827174 C310.153295,132.703153 306.417947,131.751005 303.268536,131.751005 C299.899399,131.751005 298.288072,133.142606 298.288072,135.046901 C298.288072,140.100607 315.792938,138.48928 315.792938,150.720714 C315.792938,158.19141 308.761695,162.805663 299.752914,162.805663 C294.918935,162.805663 289.938471,161.780274 286.569333,160.022463 Z" id="meetups" fill="#DE0063"></path>
    </g>
</svg>