<?xml version="1.0" encoding="UTF-8"?>
<svg width="321px" height="225px" viewBox="0 0 321 225" version="1.1" xmlns="http://www.w3.org/2000/svg" xmlns:xlink="http://www.w3.org/1999/xlink">
    <!-- Generator: Sketch 52.6 (67491) - http://www.bohemiancoding.com/sketch -->
    <title>Artboard</title>
    <desc>Created with Sketch.</desc>
    <g id="Artboard" stroke="none" stroke-width="1" fill="none" fill-rule="evenodd">
        <path d="M17.3241882,14.8282453 L17.3241882,72.0547533 L53.6522786,72.0547533 C66.5428913,69.3203809 78.2616301,59.9453898 78.2616301,42.3672816 C78.2616301,24.7891733 65.9569543,14.8282453 41.9335397,14.8282453 L17.3241882,14.8282453 Z M109.706913,141 L94.2772398,141 C77.8710055,124.203141 60.6835219,99.3984772 50.1366569,82.2109936 L17.3241882,82.2109936 L17.3241882,141 L5.41013706,141 L5.41013706,4.28138039 L41.7382274,4.28138039 C73.1835099,4.28138039 90.9569305,17.1719931 90.9569305,42.3672816 C90.9569305,61.312576 77.8710055,74.398501 62.2460204,79.6719335 C73.1835099,98.2266033 92.7147413,123.617204 109.706913,141 Z M117.363261,72.6406902 C117.363261,112.679715 147.050733,132.210946 178.105391,132.210946 C187.28507,132.210946 195.488187,131.039072 204.472553,127.132826 L204.472553,138.46094 C195.878811,141.781249 187.871007,143.148435 178.105391,143.148435 C139.23824,143.148435 105.058586,117.953147 105.058586,72.6406902 C105.058586,27.5235457 139.23824,2.13294493 178.105391,2.13294493 C187.871007,2.13294493 195.878811,3.50013113 204.472553,6.62512815 L204.472553,18.1485547 C195.488187,14.2423084 187.28507,12.8751222 178.105391,12.8751222 C147.050733,12.8751222 117.363261,32.6016659 117.363261,72.6406902 Z M282.831952,13.0704345 C250.214796,13.0704345 220.527324,35.5313506 220.527324,73.2266271 C220.527324,113.265651 249.238234,132.210946 282.050703,132.210946 C289.472571,132.210946 298.261625,131.625009 306.074117,130.06251 L306.074117,82.0156813 L317.597544,82.0156813 L317.597544,138.851565 C308.613177,141.195312 294.160066,143.148435 282.050703,143.148435 C242.011678,143.148435 208.222648,118.148459 208.222648,73.2266271 C208.222648,30.4532304 242.792928,2.13294493 282.831952,2.13294493 C296.503814,2.13294493 308.80849,4.4766927 317.402231,7.99231435 L317.402231,19.5157409 C308.613177,15.4141823 294.941315,13.0704345 282.831952,13.0704345 Z" id="RCG" fill="#003087"></path>
        <g id="&quot;G&quot;-face" transform="translate(214.000000, 33.000000)"></g>
        <g id="&quot;R&quot;-face" transform="translate(41.000000, 27.000000)"></g>
        <path d="M16.0243989,208 L5.11132338,208 L5.11132338,171.085973 L16.0243989,169.547888 L16.0243989,173.576205 C18.3681467,171.67191 22.6161895,169.401404 27.6698956,169.401404 C32.2109069,169.401404 35.6532864,171.232457 37.7773078,174.381868 C40.6337504,172.111362 45.321246,169.401404 51.546826,169.401404 C59.2372483,169.401404 63.9247438,174.748079 63.9247438,182.511743 L63.9247438,208 L52.9384262,208 L52.9384262,185.221701 C52.9384262,181.193385 51.2538575,178.776395 47.0790568,178.776395 C44.2226142,178.776395 42.0253507,179.582058 39.9013293,180.900416 C39.9745714,181.413111 39.9745714,181.925806 39.9745714,182.511743 L39.9745714,208 L28.9882537,208 L28.9882537,185.221701 C28.9882537,181.193385 27.303685,178.776395 23.1288843,178.776395 C20.3456838,178.776395 18.0751782,179.582058 16.0243989,180.900416 L16.0243989,208 Z M106.354458,206.168947 C102.692352,208 98.8837619,208.805663 94.1230242,208.805663 C81.3788958,208.805663 72.5898417,200.74903 72.5898417,189.103534 C72.5898417,177.824248 80.5732325,169.401404 91.5595501,169.401404 C103.131805,169.401404 108.405237,178.043974 108.405237,188.371112 C108.405237,189.32326 108.405237,190.421892 108.258753,191.447281 L83.0634645,191.447281 C84.3818226,197.160167 89.5820129,199.943367 95.8075929,199.943367 C99.0302461,199.943367 102.326141,199.503914 106.354458,197.672861 L106.354458,206.168947 Z M91.1933395,177.677763 C87.1650231,177.677763 83.9423699,180.31448 82.9902224,185.221701 L97.9316144,185.221701 L97.9316144,184.928733 C97.9316144,181.120143 95.8075929,177.677763 91.1933395,177.677763 Z M148.784145,206.168947 C145.12204,208 141.313449,208.805663 136.552712,208.805663 C123.808583,208.805663 115.019529,200.74903 115.019529,189.103534 C115.019529,177.824248 123.00292,169.401404 133.989238,169.401404 C145.561492,169.401404 150.834925,178.043974 150.834925,188.371112 C150.834925,189.32326 150.834925,190.421892 150.68844,191.447281 L125.493152,191.447281 C126.81151,197.160167 132.0117,199.943367 138.23728,199.943367 C141.459934,199.943367 144.755829,199.503914 148.784145,197.672861 L148.784145,206.168947 Z M133.623027,177.677763 C129.594711,177.677763 126.372057,180.31448 125.41991,185.221701 L140.361302,185.221701 L140.361302,184.928733 C140.361302,181.120143 138.23728,177.677763 133.623027,177.677763 Z M155.984374,170.207067 L161.111322,170.207067 L161.111322,162.370161 L172.09764,160.905318 L172.09764,170.207067 L184.841768,170.207067 L183.52341,178.410184 L172.09764,178.410184 L172.09764,194.743177 C172.09764,198.185556 174.221661,199.650399 177.224588,199.650399 C180.373999,199.650399 182.498021,199.284188 185.867158,197.819346 L185.867158,206.6084 C182.644505,208.073242 179.34861,208.732421 175.100567,208.732421 C167.410144,208.732421 161.111322,204.923831 161.111322,196.061535 L161.111322,178.410184 L155.984374,178.410184 L155.984374,170.207067 Z M229.688439,170.207067 L229.688439,207.121095 L218.702121,208.659179 L218.702121,204.630863 C216.358373,206.535158 212.403299,208.805663 207.203109,208.805663 C199.29296,208.805663 194.385738,203.385747 194.385738,195.695324 L194.385738,170.207067 L205.372056,170.207067 L205.372056,193.058608 C205.372056,197.086924 207.056624,199.577156 211.377909,199.577156 C214.307594,199.577156 216.504857,198.698251 218.702121,197.453135 L218.702121,170.207067 L229.688439,170.207067 Z M252.562485,180.900416 L252.562485,198.844735 C254.100569,199.796883 256.444317,200.163093 258.348612,200.163093 C264.354466,200.163093 268.382782,195.54884 268.382782,188.444355 C268.382782,182.584985 265.306613,178.629911 259.813454,178.629911 C257.030254,178.629911 254.173811,179.6553 252.562485,180.900416 Z M252.562485,224.699203 L241.649409,224.699203 L241.649409,171.085973 L252.562485,169.547888 L252.562485,173.502963 C254.759748,171.452183 258.568338,169.401404 263.329076,169.401404 C273.14352,169.401404 279.588826,176.725616 279.588826,187.858418 C279.588826,200.309578 270.580046,208.805663 259.813454,208.805663 C257.396465,208.805663 254.613264,208.292968 252.562485,207.414063 L252.562485,224.699203 Z M286.569333,206.022463 L286.569333,196.94044 C290.744134,199.503914 295.871082,200.602546 299.752914,200.602546 C302.902326,200.602546 304.879863,199.284188 304.879863,197.233409 C304.879863,191.959976 287.521481,193.717787 287.521481,181.339869 C287.521481,174.674836 293.600577,169.401404 302.243146,169.401404 C306.637674,169.401404 310.006811,170.280309 313.44919,171.891636 L313.44919,180.827174 C310.153295,178.703153 306.417947,177.751005 303.268536,177.751005 C299.899399,177.751005 298.288072,179.142606 298.288072,181.046901 C298.288072,186.100607 315.792938,184.48928 315.792938,196.720714 C315.792938,204.19141 308.761695,208.805663 299.752914,208.805663 C294.918935,208.805663 289.938471,207.780274 286.569333,206.022463 Z" id="meetups" fill="#DE0063"></path>
    </g>
</svg>